<?xml version="1.0"?>
<svg xmlns="http://www.w3.org/2000/svg" height="512px" viewBox="0 0 512 512" width="512px"><g><path d="m135.5 271h-9.101562v18.199219h9.101562c2.394531 0 4.726562-.960938 6.394531-2.640625 1.722657-1.726563 2.707031-4.078125 2.707031-6.457032 0-5.019531-4.082031-9.101562-9.101562-9.101562zm0 0" data-original="#000000" className="active-path" data-old_color="#000000" fill="#F8F8F8"/><path d="m135.5 222.800781h-9.101562v18.199219h9.101562c2.398438 0 4.730469-.964844 6.40625-2.640625 1.710938-1.71875 2.691406-4.066406 2.691406-6.445313 0-2.40625-.980468-4.753906-2.695312-6.476562-1.671875-1.675781-4.003906-2.636719-6.402344-2.636719zm0 0" data-original="#000000" className="active-path" data-old_color="#000000" fill="#F8F8F8"/><path d="m512 256c0-12.0625-4.191406-23.859375-11.789062-33.203125l-21.472657-26.457031 5.355469-33.691406c1.910156-11.921876-.367188-24.234376-6.410156-34.667969-6.050782-10.449219-15.582032-18.566407-26.8125-22.847657l-31.882813-12.210937-12.148437-31.769531c-4.253906-11.253906-12.359375-20.789063-22.886719-26.882813-10.484375-6.003906-22.789063-8.269531-34.636719-6.378906l-33.683594 5.367187-26.441406-21.449218c-9.320312-7.617188-21.105468-11.808594-33.191406-11.808594-12.0625 0-23.859375 4.191406-33.203125 11.789062l-26.457031 21.472657-33.691406-5.355469c-11.921876-1.910156-24.234376.367188-34.667969 6.410156-10.449219 6.050782-18.566407 15.582032-22.847657 26.8125l-12.210937 31.882813-31.769531 12.148437c-11.253906 4.253906-20.789063 12.359375-26.882813 22.886719-6.003906 10.484375-8.269531 22.789063-6.378906 34.636719l5.367187 33.683594-21.449218 26.441406c-7.617188 9.320312-11.808594 21.105468-11.808594 33.191406 0 12.0625 4.191406 23.859375 11.789062 33.203125l21.472657 26.457031-5.355469 33.691406c-1.910156 11.921876.367188 24.234376 6.410156 34.667969 6.050782 10.449219 15.582032 18.566407 26.8125 22.847657l31.882813 12.210937 12.148437 31.769531c4.253906 11.253906 12.359375 20.789063 22.886719 26.882813 10.484375 6.003906 22.789063 8.269531 34.636719 6.378906l33.683594-5.367187 26.441406 21.449218c9.320312 7.617188 21.105468 11.808594 33.191406 11.808594 12.0625 0 23.859375-4.191406 33.203125-11.789062l26.457031-21.472657 33.691406 5.355469c11.921876 1.910156 24.234376-.367188 34.667969-6.410156 10.449219-6.050782 18.566407-15.582032 22.847657-26.8125l12.210937-31.882813 31.769531-12.148437c11.253906-4.253906 20.789063-12.359375 26.882813-22.886719 6.003906-10.484375 8.269531-22.789063 6.378906-34.636719l-5.367187-33.683594 21.449218-26.441406c7.617188-9.320312 11.808594-21.105468 11.808594-33.191406zm-337.398438 24.101562c0 21.269532-17.28125 39.097657-39.101562 39.097657h-24.101562c-8.28125 0-15-6.714844-15-15v-96.398438c0-8.285156 6.71875-15 15-15h24.101562c21.738281 0 39.101562 17.746094 39.101562 39.082031 0 8.714844-2.996093 17.269532-8.332031 24.121094 5.214844 6.644532 8.332031 15.011719 8.332031 24.097656zm57.296876-39.101562c8.285156 0 15 6.714844 15 15s-6.714844 15-15 15h-17.132813v18.199219h25.167969c8.285156 0 15 6.714843 15 15 0 8.285156-6.714844 15-15 15h-40.167969c-8.285156 0-15-6.714844-15-15v-96.398438c0-8.285156 6.714844-15 15-15h40.167969c8.285156 0 15 6.714844 15 15 0 8.285157-6.714844 15-15 15h-25.167969v18.199219zm64.269531 78.199219h-16.066407c-8.285156 0-15-6.714844-15-15 0-8.285157 6.714844-15 15-15h16.066407c5.015625 0 9.097656-4.082031 9.097656-9.097657 0-5.019531-4.082031-9.101562-9.097656-9.101562-21.5625 0-39.101563-17.539062-39.101563-39.101562 0-21.558594 17.539063-39.097657 39.101563-39.097657h16.066406c8.28125 0 15 6.714844 15 15 0 8.285157-6.71875 15-15 15h-16.066406c-5.019531 0-9.101563 4.082031-9.101563 9.097657 0 5.019531 4.082032 9.101562 9.101563 9.101562 21.558593 0 39.097656 17.539062 39.097656 39.101562 0 21.558594-17.539063 39.097657-39.097656 39.097657zm104.433593-96.398438h-9.101562v81.398438c0 8.285156-6.714844 15-15 15s-15-6.714844-15-15v-81.398438h-9.101562c-8.28125 0-15-6.714843-15-15 0-8.285156 6.71875-15 15-15h48.203124c8.28125 0 15 6.714844 15 15 0 8.285157-6.71875 15-15 15zm0 0" data-original="#000000" className="active-path" data-old_color="#000000" fill="#F8F8F8"/></g> </svg>
